<?xml version="1.0" encoding="UTF-8"?>
<svg id="rainwoo-favicon" data-name="图层_1" xmlns="http://www.w3.org/2000/svg" version="1.1" viewBox="28.21 30.98 56.69 56.69">
  <!-- Generator: Adobe Illustrator 29.1.0, SVG Export Plug-In . SVG Version: 2.1.0 Build 142)  -->
  <defs>
    <style>
      .st0 {
        fill: #ab8450;
      }
    </style>
  </defs>
  <path class="st0" d="M28.21,30.98v56.69h56.69V30.98H28.21ZM64.03,35.1c0,.2-.16.36-.36.36-.35,0-.6.35-.49.68l1.83,5.29c.07.2.36.2.43,0l1.8-5.25c.12-.35-.14-.72-.51-.72-.2,0-.36-.16-.36-.36h2.73c0,.2-.16.36-.36.36-.4,0-.75.25-.88.62l-2.78,7.92c-.03.1-.13.16-.23.16s-.19-.07-.23-.16l-2.71-7.81c-.15-.44-.57-.73-1.03-.73-.2,0-.36-.16-.36-.36h3.5ZM59.77,35.1c0,.2-.16.36-.36.36-.35,0-.6.35-.49.68l1.83,5.27c.07.21.36.2.43,0l.89-2.65c.18.58.17,1.21-.03,1.78l-1.22,3.46c-.03.1-.13.16-.23.16h0c-.1,0-.19-.07-.23-.16l-2.71-7.81c-.15-.44-.57-.73-1.03-.73-.2,0-.36-.16-.36-.36h3.5ZM55.25,37.82c.92,0,1.66.75,1.66,1.66v3.85c0,.27.22.48.48.48.18,0,.33.13.35.3,0,.01,0,.03-.01.04,0,.01-.02.02-.04.02h-2.87s-.03,0-.04-.02c0-.01-.01-.02-.01-.04.03-.17.18-.3.36-.3.27,0,.48-.22.48-.48v-3.85c0-.53-.43-.97-.97-.97s-.94.4-.97.92c0,.03-.02.05-.05.05-.01,0-.03,0-.04-.01,0,0-.02-.02-.02-.03.03-.89.77-1.61,1.66-1.61ZM56.28,49.88c0,.53-.43.95-.95.95s-.95-.43-.95-.95.43-.95.95-.95.95.43.95.95ZM51.02,38.93c0-.18.11-.34.28-.4l1.84-.66v5.45c0,.27.22.48.48.48.2,0,.36.16.36.36h-2.97c0-.2.16-.36.36-.36.27,0,.48-.22.48-.48v-3.55c0-.47-.38-.84-.84-.84ZM48.88,35.1c.53,0,.95.43.95.95s-.43.95-.95.95-.95-.43-.95-.95.43-.95.95-.95ZM47.47,38.93c0-.18.11-.34.28-.4l1.84-.66v5.45c0,.27.22.48.48.48.2,0,.36.16.36.36h-2.97c0-.2.16-.36.36-.36h0c.27,0,.48-.22.48-.48v-3.55c0-.47-.38-.84-.84-.84ZM43.31,38.52c-.81,0-1.49.66-1.52,1.47,0,.03-.02.05-.05.05-.01,0-.03,0-.04-.01,0,0-.02-.02-.02-.03.03-1.19,1.02-2.17,2.21-2.17s2.21.99,2.21,2.21v3.03c0,.23.19.41.41.41.21,0,.39-.16.41-.37,0-.02.02-.04.05-.04.01,0,.03,0,.04.01,0,0,.02.02.02.04-.03.6-.51,1.06-1.11,1.06s-1.11-.5-1.11-1.11v-2.41s-.02-.08-.05-.1c-.02-.01-.04-.02-.07-.02-.02,0-.03,0-.05,0-.39.17-.81.37-1.25.62-.76.42-.88,1.12-.76,1.61.12.46.45.75.85.75.53,0,.79-.28.92-.52,0-.02.02-.03.04-.03,0,0,.01,0,.02,0,.02,0,.04.03.03.05-.19.94-.95,1.27-1.53,1.27s-1.11-.29-1.3-.72c-.46-1.05-.08-1.97,1.04-2.54.91-.46,1.78-.81,2.03-.9.05-.02.08-.06.08-.11-.01-.82-.69-1.49-1.52-1.49ZM33.26,35.46c-.2,0-.36-.16-.36-.36h4.64c1.54,0,2.74,1.43,2.34,3.03-.26,1.07-1.26,1.8-2.36,1.8,0,0-.01,0,0,.01l2.07,3.32c.21.34.58.55.98.55h.07c.2,0,.36.16.36.36h-1.71c-.38,0-.73-.2-.94-.52l-2.17-3.48c-.09-.14-.25-.23-.41-.23,0-.2.16-.36.36-.36h.28c1.15,0,2.08-.94,2.06-2.1-.02-1.13-.99-2.02-2.13-2.02h-.29c-.41,0-.75.34-.75.75v6.85c0,.41.34.75.75.75.2,0,.36.16.36.36h-3.5c0-.2.16-.36.36-.36.41,0,.75-.34.75-.75v-6.85c0-.41-.34-.75-.75-.75ZM41.97,53.46c0,2.5-2.03,4.53-4.53,4.53h-4.53c0-.2.16-.36.36-.36.41,0,.75-.34.75-.75v-6.97c.71,0,1.28.57,1.28,1.28v5.69c0,.41.34.75.75.75h.31c2.31,0,4.18-1.87,4.18-4.18s-1.87-4.18-4.18-4.18h-3.09c-.2,0-.36-.16-.36-.36h4.53c2.5,0,4.53,2.03,4.53,4.53h0ZM48.57,54.7c-.07.07-.16.12-.26.12h-3.27c-.17,0-.31-.14-.31-.31h0,0s.02-.05.05-.05h2.07c.13,0,.26-.06.34-.16.08-.1.12-.24.1-.37-.22-1.19-.86-1.99-1.58-1.99-.92,0-1.66,1.29-1.66,2.87,0,.12,0,.23.01.34,0,.05,0,.1.01.15v.12c.02.08.03.16.05.24v.03c.02.08.04.16.05.23.27,1.09.96,1.71,1.88,1.71.17,0,.35-.02.54-.07.98-.3,1.5-1.07,1.77-1.67,0-.01.02-.02.03-.03,0,0,0,0,0,0,.01,0,.02,0,.03.01l.03.03s.02.03.01.05c-.44,1.22-1.55,2.04-2.76,2.04-1.63,0-2.96-1.42-2.96-3.18s1.33-3.18,2.96-3.18c1.51,0,2.77,1.21,2.94,2.81.01.09-.02.18-.08.26ZM49.87,57.67s1.62.34,2.24-.58c.62-.92-.68-1.53-1.56-1.98-.88-.45-1.84-1.34-1.15-2.63.69-1.29,2.31-.7,2.62-.57.21.09.39.03.52-.06.1-.06.22.01.22.12v1.35c0,.1-.14.13-.17.04-.23-.55-.72-1.34-1.63-1.34-1.4,0-1.38,1.37-.33,1.86,1.06.5,2.55.97,2.55,2.44s-1.96,2.13-3.31,1.36ZM53.91,58c0-.2.16-.36.36-.36.27,0,.48-.22.48-.48v-3.55c0-.47-.38-.84-.84-.84,0-.18.11-.34.28-.4l1.84-.66v5.45c0,.27.22.48.48.48.2,0,.36.16.36.36h-2.97ZM62.84,59.08c-.37,1.04-2.19,2.42-4.46,1.78-2.27-.64-1.41-2.05-1-2.25.41-.2.73-.04.73-.04-.37.04-1.28.79.45,1.47,1.73.68,3.82-.22,3.93-.94.12-.71-.44-.95-1.92-.97-1.48-.02-2.89-.02-3.15-.89-.15-.51.29-1,.68-1.32.16-.13.17-.38,0-.51-.48-.39-.78-.96-.78-1.59,0-1.19,1.07-2.15,2.39-2.15.37,0,.72.08,1.03.21.49.21,1,.35,1.53.35h.21c.2,0,.36.16.36.36h-.65c-.22,0-.36.22-.27.42.11.25.18.52.18.81,0,1.19-1.07,2.15-2.39,2.15-.19,0-.38-.02-.56-.06-.28-.06-.56.07-.7.31-.04.08-.09.17-.12.28-.22.69,2.19.57,3.14.64.96.07,1.73.89,1.37,1.93ZM63.52,58c0-.2.16-.36.36-.36.27,0,.48-.22.48-.48v-3.55c0-.47-.38-.84-.84-.84,0-.18.11-.34.28-.4l1.84-.66v5.45c0,.27.22.48.48.48.2,0,.36.16.36.36h-2.97ZM70.24,57.98s-.02.02-.04.02h-2.87s-.03,0-.04-.02c0-.01-.01-.02-.01-.04.03-.17.18-.3.36-.3.27,0,.48-.22.48-.48v-3.85c0-.53-.43-.97-.97-.97s-.94.4-.97.92c0,.03-.02.05-.05.05-.01,0-.03,0-.04-.01,0,0-.02-.02-.02-.03.03-.89.77-1.61,1.66-1.61s1.66.75,1.66,1.66v3.85c0,.27.22.48.48.48.18,0,.33.13.36.3,0,.01,0,.03-.01.04ZM70.39,44.17c-1.64,0-2.96-1.42-2.96-3.18s1.33-3.18,2.96-3.18,2.96,1.42,2.96,3.18-1.33,3.18-2.96,3.18ZM77.24,44.17c-1.64,0-2.96-1.42-2.96-3.18s1.33-3.18,2.96-3.18,2.96,1.42,2.96,3.18-1.33,3.18-2.96,3.18ZM59.71,55.76c.74,0,1.34-.87,1.34-1.94s-.6-1.94-1.34-1.94-1.34.87-1.34,1.94.6,1.94,1.34,1.94ZM70.39,38.12c-.92,0-1.66,1.29-1.66,2.87s.74,2.87,1.66,2.87,1.66-1.29,1.66-2.87-.74-2.87-1.66-2.87ZM77.24,38.12c-.92,0-1.66,1.29-1.66,2.87s.74,2.87,1.66,2.87,1.66-1.29,1.66-2.87-.74-2.87-1.66-2.87Z"/>
  <path class="st0" d="M131.49,74.39c.22.43.43.59,1,.54.1,0,.3-.07.55-.17-.12.74-.31,1.24-.6,1.52-.65.62-.8.91-.94.59,0,0-.13.03-.16.45s-.46.54-.03,1.13c.43.59,1.13.73,1.14,1.01,0,.28.4.08.65.2.13.06.35-.03.6-.17-.1.27-.22.4.09.72.42.43,1.2,1.21,1.76,1.54.56.33.32.54,1.02.45.7-.1.8-.5,1.28-1.11.47-.62.64-1.38.33-1.62,0,0,.04.54-.63.54-.49,0-1.14-.07-1.84-.41-.28-.13-.53-.27-.74-.42-.16-.11-.17-.34-.02-.46.26-.2.46-.38.46-.38,0,0-.75.35-.69.1.06-.25,1.09-.66,1.53-.75.44-.09-.48.3-.4.41.08.12,1.26-.6,2.16-.89s.28-.43.46-.98-.57-.8-.86-1.39c-.29-.59-1.38.1-1.32-1.16,0-.13.01-.29.02-.46.47-.23.87-.44,1.14-.57,1.11-.54,1.06-.68,1.16-1.51.1-.83-.93-1.62-1.24-2.4-.2-.51-.96-.83-1.44-1-.46-.89-1.72-.64-2.36-1.12-.68-.51-1.62.13-1.62.13.23.55,1.05,1.14,1.21,3.63-1.32.38-2.69.7-2.9,1.08-.24.42-.12.91.14,1.66.26.75.88.86,1.1,1.29ZM142.81,67.26h-1.57v5.34h1.57v-5.34ZM126.23,81.63c-.03,1.03-.03,1.7.91,2.8s.85.85,1.47,1.08c.62.23,1.02-.6,1.57-.87.55-.27-.09-2.28,1.21-3.45.76-.68,1.16-.18.6.8-.56.98-1.04.82-.84,1.83.2,1.02.03,1.38,1.88,2.14,2.98,1.22,4.94.66,6.3.34,1.37-.31,1.33-.26,1.72-.91.39-.65-.08-.86-.05-1.42s-3.03-1.58-3.48-2.02c0,0,.55.63,1.45,1.32.86.66.82,1.26-2.53,1.71-3.92.52-4.94-1.16-4.59-1.96s.93-.45,1.38-.85c.45-.39.27-.66.24-1.15s-.62-.21-1.01-.7c-.39-.49-.99.93-2.58,1.71-1.6.79-3.66-.42-3.66-.42ZM87.82,30.98v56.69h56.69V30.98h-56.69ZM143.82,79.98c-1.13-.83-2.31-.21-4.73.25,0,0,2.31.27,2.97.97.66.7-.56,1.35-1.43,1.27,0,0,.44.42,1.73.13,1.08-.24,1.04.06,1.46.25v4.11h-25.1c1.08-2.57,2.32-5.7,2.32-5.7,0,0-.17.45-.96,1.66-1.07,1.63-.1-.59.91-2.64,1.01-2.05.15.72.15.72,0,0,1.12-2.66,1.8-4.48.14-.37.27-.66.39-.87.16-.29.5-.43.82-.33,1.3.4,2.84.89,2.84.89-1.11-.48-2.95-1.07-2.87-1.48.08-.41.88.26,1.97.59,1.08.33,1.6.57,1.53,1.01-.08.44.1.25.21.58.11.33.31.22-.68.98-1.72,1.33-2.83,1.58-1.77.51,1.12-1.13,1.9-1.57,1.9-1.57,0,0-.87.17-2.68,1.87-1.79,1.68-2.34,1.73-2.32,1.42.02-.31-.2-.59-.2-.59-.08,1.35-.77,1.73-.42,2.08.34.36.21.6.74.59.53-.02,1.39-.12,1.58-.81.19-.68.55-1.1,2.18-2.46,1.63-1.36,3.69-1.57,3.26-1.94-.43-.37-.31-.82-.55-1.22s-.27.1-2.37-.83c-1.47-.65-1.89-1.18-2.42-1.49-.19-.12-.36-.26-.51-.43-.16-.19-.31-.11-.72.03-.05.02-.11.05-.17.1-.11.09-.23.16-.36.21-1.28.55-2.96,2.09-3.56,2.66-.75.73.13-1.76.76-2.86.63-1.1,1.16-.2,1.16-.2-.39-1.51-1.69-1.08-2.45.69-.23.54-.45,1.08-.63,1.62-.13.37-.35.69-.65.94-.35.29-.83.69-1.52,1.22v-1.05c.42-.3.8-.57,1.11-.77,1.55-.98.39-2.19-.14-3.4-.25-.58-.65-.88-1.05-1.07-.27-.55-1.14-1.06-1.53-1.54-.46-.57-1.58,0-1.58,0,0,0,.36.16.31,1.09-.03.51.23,1.65.39,3.3-.7.5-1.32.74-1.27.14.11-1.3-.3-1.58-1.12-2.35-.18-.17-1.17.82-1.29,1.84-.12,1.02-.2,1.86-.44,2.7-.24.84-.61.64.31,1.7.92,1.06.55,1.04,1.51,1.24.44.09,1.39-.46,2.44-1.18.01.34.03.67.04,1-2.67,1.79-3.57,1.98-3.57,1.98-.39.5-.95.39-1.13.9-.18.51-.07,1.18.02,1.59s.85.26,1.32.39c.31.08,1.74-1.08,3.4-2.39-.04.71-.13,1.29-.36,1.68-.65,1.16-2.97,1.35-2.97,1.35,0,0,.29.38,1.81.16,1.52-.22,1.75.61,2.83.47,1.08-.14,1.23-.29,1.47-.92.22-.58-.39-1.35-.48-4.5,0,0,0,0,0,0,.8-.55,1.35-1,1.75-1.37,0,.01,0,.02,0,.04.34,1.2.5.37.83.76.33.38-.37.85-.09,1.12.27.27.33.14.71.56.38.42.26.43.75.09.49-.34.33-.38.31-.97-.02-.59.8-2.63,1.36-3.6.08-.15.17-.29.26-.42.14-.21.47-.17.56.06.19.51.12,1.42-.77,3.06-1.99,3.67-2.46,5.61-3.03,6.16-.15.15-.04.16-.2.46s-.37.51-.33.77c.01.1-.09.28-.23.48h-28.81v-5.69c.14.08.29.15.48.21,1.18.33,1.38.9,2.1.57.73-.33,1.24-.51,1.18-1.2s.77-.5.92-.86c0,0-.26.17-.63-.65-.37-.82-.4-.16-.8-.83-.4-.68-1.2-.84-1.59-.73-.31.09-1.03.29-1.66.2v-10.08c.18.13.59.54.74,1.53.2,1.28,1.08,1.57,1.24,2.2s.63.53,1.16.78,1.26-.73,2.59-1.12c1.33-.39,1.39-.63,1.62-1.15.23-.52-.33-1.26-.65-1.92-.32-.66-.69-.44-1.69-1.56-.98-1.1-3.41,1.64-5,1.2V31.68h55.3v48.31ZM96.36,68.77c.51.07.76-.45.79.21.01.27-.02.95-.06,1.71-.01.22-.11.42-.28.56-.4.33-1.07.75-2.14,1.06-.33-.13-.6-.17-.6-.17,0,0,.29,1.03.12,4.06-.1,1.79-.19,4.06-.17,5.91-1.75.73-3.54,1.29-5.19,1.31,0,0-.18.88.78,1.71.96.82,1.79.52,3.41-.46.33-.2.68-.47,1.06-.78.04.49.09.91.16,1.2.36,1.45.85,1.47,1.54,1.61.48.1.14-1.58-.04-4.2,1.25-1.03,2.76-2.13,4.65-2.8.71-.25,1.33-.43,1.87-.55.17-.04.34.09.34.27,0,.45-.05.88-.33,1.26-.03.05-.08.08-.14.1-.2.07-.41.13-.63.21-3.71,1.25-4.54,2.27-5.27,1.94,0,0,.22,1.11,1.04,1.46.82.35,1.86-1.35,4.67-2.24,1.47-.46,2.41-.42,3.12-.33-.38,3.05-1.9,2.56-3,2.7,0,0-.08.4-.32.47-.24.07.38.5.62.95.24.45.4.51,1.46.33,1.06-.18,1.39.32,2.04.09s1.04-1.25.98-4.1c0-.18,0-.34-.02-.5.66-.34.16-.76.11-1.34-.02-.2-.12-.27-.25-.28-.11-.77-.24-1.41-.34-2.68.1-.03.19-.08.32-.17.35-.25-.04-.51-.38-1.05,0-.22-.02-.46-.02-.72-.09-4.06.17-4.68-.01-5.62-.18-.94-.78-1.33-1.06-1.68-.27-.35-.77.69-2.37.71-.34,0,.51.88.86.77.35-.12.86-.43.88.37,0,.05,0,.12.01.21.02.3-.07.61-.29.82-.11.11-.24.2-.4.27-.18.08-.34.16-.46.22-.09.05-.19-.01-.19-.11,0-.53-.03-.99-.19-1.31-.39-.74-1.14-1.02-1-1.94,0,0-.53.75-.49,1.92.04,1.18-.34,2.06.14,2.3.47.24.35.8.35,1.43,0,.63-.56.71-.29,1,.27.29.39.55.86.45.29-.06.51-.19.61-.56.04-.17.18-.3.35-.35.21-.07.45-.16.71-.25.52-.18.66.23.69.48.03.38.06.78.08,1.18-.45.11-1.08.3-1.99.48-2.22.43-6.02,2.16-6.55,1.98,0,0-.13.29.31.47.39.16.68.39,2.45-.43.77-.36,1.87-.64,2.93-.84.16-.03.32.08.34.24.02.12.03.27.03.44,0,.07,0,.15,0,.22,0,.13-.08.25-.21.28-.2.05-.42.1-.66.15-1.59.34-3.73,1.49-6.01,2.55-.04-.88-.05-1.83-.01-2.84.02-.43.03-.82.05-1.17.01-.23.14-.43.33-.55.28-.17.58-.35.78-.5.52-.37.67.09,1.09.01.41-.07,1.02-1.23.96-1.86-.06-.63-.35-.67-.24-3.32.1-2.65.58-2.65.25-3.3s-.32-.34-.63-.71c-.31-.37-.23-.21-.77-.19-.54.02-.35.74-1.64,1.19,0,0,.02.53.53.6ZM104.71,72.86c-.32.31-.89.58-1.31.76-.09.04-.2-.02-.21-.13-.02-.28-.02-.58-.01-.89,0-.15.11-.27.25-.29.53-.09,1.26-.24,1.36.3-.03.08-.05.17-.08.24ZM105.16,79.97c-.18.01-.43.06-.76.14-.15.04-.3-.06-.32-.21-.03-.2-.06-.45-.07-.74,0-.12.09-.21.21-.21.4.01.71.07.94.14,0,.3,0,.6,0,.89ZM105.1,77.27c0,.14.01.27.02.41-.11.09-.36.25-.91.47-.12.04-.25-.03-.27-.15-.07-.34-.19-.56-.31-.69.61-.06,1.14-.08,1.48-.04ZM96.9,73.67c-.07.86-.12,1.01-.89,1.52-.05.04-.1.07-.14.1.07-.62.12-.93.12-1.17,0-.18.09-.34.24-.44.21-.13.44-.28.69-.39-.01.15-.02.28-.03.38ZM126.49,72.92c1.65,0,2.99-1.34,2.99-2.99s-1.34-2.99-2.99-2.99-2.99,1.34-2.99,2.99,1.34,2.99,2.99,2.99ZM126.49,68.51c.78,0,1.42.64,1.42,1.42s-.64,1.42-1.42,1.42-1.42-.64-1.42-1.42.64-1.42,1.42-1.42Z"/>
</svg>